HIERARCHY
ROOT reference
{
  OFFSET -65.3212 -1.93545 -120.338
  CHANNELS 6 Xposition Yposition Zposition Zrotation Xrotation Yrotation
  JOINT Hips
  {
    OFFSET 0 78.7191 0
    CHANNELS 3 Zrotation Xrotation Yrotation
    JOINT Chest
    {
      OFFSET 0 8.7983 -4.7612
      CHANNELS 3 Zrotation Xrotation Yrotation
      JOINT Chest2
      {
        OFFSET 0 8.0291 0.4195
        CHANNELS 3 Zrotation Xrotation Yrotation
        JOINT Chest3
        {
          OFFSET 0 9.9351 -2.2114
          CHANNELS 3 Zrotation Xrotation Yrotation
          JOINT Neck
          {
            OFFSET 0 22.3885 -0.4656
            CHANNELS 3 Zrotation Xrotation Yrotation
            JOINT Head
            {
              OFFSET -0.0001 12.643 3.4389
              CHANNELS 3 Zrotation Xrotation Yrotation
              End Site
              {
                OFFSET 0.0001 17.6655 0.5274
              }
            }
          }
          JOINT LeftCollar
          {
            OFFSET 2.2603 21.606 7.4023
            CHANNELS 3 Zrotation Xrotation Yrotation
            JOINT LeftShoulder
            {
              OFFSET 13.5163 -1.1332 -5.0146
              CHANNELS 3 Zrotation Xrotation Yrotation
              JOINT LeftElbow
              {
                OFFSET -0.0995 -28.05 -0.2431
                CHANNELS 3 Zrotation Xrotation Yrotation
                JOINT LeftWrist
                {
                  OFFSET 0.0679 -23.3996 -0.1402
                  CHANNELS 3 Zrotation Xrotation Yrotation
                  JOINT LeftFinger1
                  {
                    OFFSET 0.7932 -9.069 2.5189
                    CHANNELS 3 Zrotation Xrotation Yrotation
                    JOINT LeftFinger11
                    {
                      OFFSET -0.8272 -3.3923 0.5977
                      CHANNELS 3 Zrotation Xrotation Yrotation
                      JOINT LeftFinger12
                      {
                        OFFSET -0.5649 -2.3158 0.4082
                        CHANNELS 3 Zrotation Xrotation Yrotation
                        End Site
                        {
                          OFFSET -0.4919 -1.6479 0.2673
                        }
                      }
                    }
                  }
                  JOINT LeftFinger2
                  {
                    OFFSET 0.9159 -9.2044 0.2193
                    CHANNELS 3 Zrotation Xrotation Yrotation
                    JOINT LeftFinger21
                    {
                      OFFSET 0.0117 -4.1944 -0.0248
                      CHANNELS 3 Zrotation Xrotation Yrotation
                      JOINT LeftFinger22
                      {
                        OFFSET 0.0071 -2.3249 -0.0142
                        CHANNELS 3 Zrotation Xrotation Yrotation
                        End Site
                        {
                          OFFSET -0.1475 -2.0882 0.0028
                        }
                      }
                    }
                  }
                  JOINT LeftFinger3
                  {
                    OFFSET 0.6113 -8.7231 -2.0637
                    CHANNELS 3 Zrotation Xrotation Yrotation
                    JOINT LeftFinger31
                    {
                      OFFSET -0.1927 -3.8059 -0.2383
                      CHANNELS 3 Zrotation Xrotation Yrotation
                      JOINT LeftFinger32
                      {
                        OFFSET -0.1091 -2.1688 -0.1362
                        CHANNELS 3 Zrotation Xrotation Yrotation
                        End Site
                        {
                          OFFSET -0.2358 -1.9176 -0.0906
                        }
                      }
                    }
                  }
                  JOINT LeftFinger4
                  {
                    OFFSET -0.6151 -8.0947 -3.5641
                    CHANNELS 3 Zrotation Xrotation Yrotation
                    JOINT LeftFinger41
                    {
                      OFFSET -0.4882 -2.341 -0.6462
                      CHANNELS 3 Zrotation Xrotation Yrotation
                      JOINT LeftFinger42
                      {
                        OFFSET -0.3575 -1.7167 -0.4742
                        CHANNELS 3 Zrotation Xrotation Yrotation
                        End Site
                        {
                          OFFSET -0.4187 -1.5237 -0.3496
                        }
                      }
                    }
                  }
                  JOINT LeftFinger0
                  {
                    OFFSET -1.42 -1.8761 1.4223
                    CHANNELS 3 Zrotation Xrotation Yrotation
                    JOINT LeftFinger01
                    {
                      OFFSET -1.1471 -3.4929 2.6334
                      CHANNELS 3 Zrotation Xrotation Yrotation
                      JOINT LeftFinger02
                      {
                        OFFSET -0.823 -2.3 1.6571
                        CHANNELS 3 Zrotation Xrotation Yrotation
                        End Site
                        {
                          OFFSET -0.5822 -1.6914 1.1582
                        }
                      }
                    }
                  }
                }
              }
            }
          }
          JOINT RightCollar
          {
            OFFSET -2.2603 21.606 7.4023
            CHANNELS 3 Zrotation Xrotation Yrotation
            JOINT RightShoulder
            {
              OFFSET -13.5187 -1.1334 -5.0155
              CHANNELS 3 Zrotation Xrotation Yrotation
              JOINT RightElbow
              {
                OFFSET 0.0994 -28.0499 -0.2431
                CHANNELS 3 Zrotation Xrotation Yrotation
                JOINT RightWrist
                {
                  OFFSET -0.0679 -23.3996 -0.1402
                  CHANNELS 3 Zrotation Xrotation Yrotation
                  JOINT RightFinger1
                  {
                    OFFSET -0.7932 -9.0691 2.5189
                    CHANNELS 3 Zrotation Xrotation Yrotation
                    JOINT RightFinger11
                    {
                      OFFSET 0.8272 -3.3923 0.5977
                      CHANNELS 3 Zrotation Xrotation Yrotation
                      JOINT RightFinger12
                      {
                        OFFSET 0.565 -2.3158 0.4082
                        CHANNELS 3 Zrotation Xrotation Yrotation
                        End Site
                        {
                          OFFSET 0.4919 -1.6479 0.2673
                        }
                      }
                    }
                  }
                  JOINT RightFinger2
                  {
                    OFFSET -0.916 -9.2044 0.2193
                    CHANNELS 3 Zrotation Xrotation Yrotation
                    JOINT RightFinger21
                    {
                      OFFSET -0.0117 -4.1944 -0.0248
                      CHANNELS 3 Zrotation Xrotation Yrotation
                      JOINT RightFinger22
                      {
                        OFFSET -0.0071 -2.3249 -0.0142
                        CHANNELS 3 Zrotation Xrotation Yrotation
                        End Site
                        {
                          OFFSET 0.1475 -2.0882 0.0028
                        }
                      }
                    }
                  }
                  JOINT RightFinger3
                  {
                    OFFSET -0.6113 -8.7231 -2.0637
                    CHANNELS 3 Zrotation Xrotation Yrotation
                    JOINT RightFinger31
                    {
                      OFFSET 0.1927 -3.8059 -0.2383
                      CHANNELS 3 Zrotation Xrotation Yrotation
                      JOINT RightFinger32
                      {
                        OFFSET 0.1091 -2.1688 -0.1362
                        CHANNELS 3 Zrotation Xrotation Yrotation
                        End Site
                        {
                          OFFSET 0.2358 -1.9176 -0.0906
                        }
                      }
                    }
                  }
                  JOINT RightFinger4
                  {
                    OFFSET 0.6151 -8.0947 -3.564
                    CHANNELS 3 Zrotation Xrotation Yrotation
                    JOINT RightFinger41
                    {
                      OFFSET 0.4882 -2.341 -0.6462
                      CHANNELS 3 Zrotation Xrotation Yrotation
                      JOINT RightFinger42
                      {
                        OFFSET 0.3574 -1.7166 -0.4742
                        CHANNELS 3 Zrotation Xrotation Yrotation
                        End Site
                        {
                          OFFSET 0.4187 -1.5237 -0.3496
                        }
                      }
                    }
                  }
                  JOINT RightFinger0
                  {
                    OFFSET 1.4199 -1.8761 1.4221
                    CHANNELS 3 Zrotation Xrotation Yrotation
                    JOINT RightFinger01
                    {
                      OFFSET 1.1472 -3.4929 2.6336
                      CHANNELS 3 Zrotation Xrotation Yrotation
                      JOINT RightFinger02
                      {
                        OFFSET 0.8229 -2.3 1.6571
                        CHANNELS 3 Zrotation Xrotation Yrotation
                        End Site
                        {
                          OFFSET 0.5822 -1.6914 1.1582
                        }
                      }
                    }
                  }
                }
              }
            }
          }
        }
      }
    }
    JOINT RightHip
    {
      OFFSET -9.412 3.9771 -0.7758
      CHANNELS 3 Zrotation Xrotation Yrotation
      JOINT RightKnee
      {
        OFFSET -0.7531 -40.938 0
        CHANNELS 3 Zrotation Xrotation Yrotation
        JOINT RightAnkle
        {
          OFFSET 0 -40.1986 0
          CHANNELS 3 Zrotation Xrotation Yrotation
          JOINT RightToe
          {
            OFFSET 0 -4.4182 9.239
            CHANNELS 3 Zrotation Xrotation Yrotation
            End Site
            {
              OFFSET 0 0 6.1981
            }
          }
        }
      }
    }
    JOINT LeftHip
    {
      OFFSET 9.4119 3.9773 -0.7758
      CHANNELS 3 Zrotation Xrotation Yrotation
      JOINT LeftKnee
      {
        OFFSET 0.7532 -40.9383 0
        CHANNELS 3 Zrotation Xrotation Yrotation
        JOINT LeftAnkle
        {
          OFFSET 0 -40.1986 0
          CHANNELS 3 Zrotation Xrotation Yrotation
          JOINT LeftToe
          {
            OFFSET 0 -4.4182 9.239
            CHANNELS 3 Zrotation Xrotation Yrotation
            End Site
            {
              OFFSET 0 0 6.1981
            }
          }
        }
      }
    }
  }
}
MOTION
Frames:	5
Frame Time:	0.0333333
-26.4794 -66.0822 85.295 0 0 -0 10.1807 -64.7109 21.1565 -0.117317 -7.04082 0.342209 -0.194109 -14.0822 0.67753 -0.194113 -14.0822 0.67753 0.374504 -0.65548 -5.68349 17.7696 4.87546 -1.56821 5.16433 -1.47308 -27.8654 45.2158 -52.2719 28.1787 65.7568 -77.3502 94.8742 -26.4588 -19.3361 -24.4708 -3.03461 13.5333 -2.18217 -35.3168 20.4567 4.66818 -36.3891 20.969 4.99621 -1.00373 1.77403 1.17349 -42.7844 24.7471 5.5452 -8.91268 5.62966 -0.441579 -6.58205 6.72803 5.06497 -13.8829 9.68223 -0.672516 -15.268 10.6417 -0.610384 13.8074 -0.976157 8.79332 -17.7368 12.2751 -1.06104 -8.75071 6.0302 -1.0008 -11.5753 -16.7455 -49.4477 -4.53226 0.274099 0.313005 8.53298 10.6973 -3.07921 -21.9602 0.11409 4.53246 -49.8281 -74.6573 -30.3296 5.48643 -50.6584 -2.16162 9.55585 -36.8933 -0.929414 20.8133 17.2476 -1.64448 39.2536 11.9924 -4.93881 40.0954 12.1952 -5.1285 5.73491 3.01958 -1.23924 51.4242 15.4173 -6.16793 14.4547 4.90057 -0.27617 12.0241 6.76833 -5.49468 20.2298 7.81099 -0.242923 21.8125 8.40432 -0.378078 -13.6358 2.82535 -6.86716 21.0316 7.98085 0.327131 10.7771 4.0872 0.530849 14.9862 -7.14843 53.2651 1.89441 -0.271196 -1.98341 -14.8775 25.9548 12.1768 -29.6224 -9.85783 -8.03491 0.56898 0.037147 4.33236 15.0921 13.5915 -0.949407 1.37639 9.20256 -0.640283 40.0779 -33.7647 17.063 0.035652 24.5205 -1.65822 -13.0268 9.99326 -15.4196 0.204354 -1.5266 0.00261538 
-26.4116 -66.0989 85.2944 0 0 -0 10.348 -64.643 21.3266 -0.140201 -7.05978 0.352051 -0.239058 -14.1203 0.694561 -0.239062 -14.1204 0.694559 0.298849 -0.467104 -5.78209 17.9047 4.7772 -1.5653 5.1621 -1.47315 -27.8299 45.2018 -52.3759 28.0415 64.7562 -77.1367 92.8611 -26.2432 -19.935 -23.5296 -3.03458 13.5333 -2.18215 -35.3168 20.4567 4.66819 -36.389 20.9689 4.99622 -1.0037 1.774 1.17348 -42.7843 24.7471 5.5452 -8.91266 5.62963 -0.44158 -6.58204 6.72801 5.06496 -13.8829 9.68222 -0.672518 -15.268 10.6416 -0.610382 13.8074 -0.976165 8.79334 -17.7368 12.2751 -1.06106 -8.75191 6.03104 -1.00088 -11.5752 -16.7455 -49.4478 -4.53225 0.274115 0.313011 8.53297 10.6973 -3.07919 -21.9919 0.119521 4.5634 -50.0827 -74.6779 -30.4723 5.46029 -50.22 -1.71422 8.63488 -37.5381 -1.63374 20.8132 17.2476 -1.64449 39.2535 11.9924 -4.93882 40.0954 12.1952 -5.12852 5.73487 3.01957 -1.23925 51.4242 15.4173 -6.16793 14.4547 4.90053 -0.276166 12.0241 6.76832 -5.49467 20.2298 7.81098 -0.242917 21.8125 8.40398 -0.378713 -13.6358 2.82535 -6.86717 21.0316 7.98085 0.327127 10.7771 4.08721 0.530857 14.9861 -7.14842 53.2651 1.89446 -0.271169 -1.98346 -14.8775 25.9548 12.1768 -29.7401 -9.88671 -8.08066 0.5742 0.0256197 4.31895 15.1732 13.7063 -1.12731 1.39651 9.33081 -0.650902 40.0105 -33.8957 17.1648 0.0452598 24.6481 -1.61146 -12.8321 9.85573 -15.5584 0.180304 -1.34707 0.00202621 
-26.4838 -66.0706 85.3456 0 0 -0 10.1855 -64.7625 21.2917 -0.11072 -7.00649 0.350305 -0.179921 -14.0136 0.694756 -0.179924 -14.0136 0.694755 0.315631 -0.942007 -5.69924 17.3827 5.12069 -1.84645 5.35226 -1.47757 -28.364 45.0978 -52.3016 28.1924 67.5878 -76.7796 96.5365 -26.744 -19.0731 -24.5298 -3.03464 13.5333 -2.18213 -35.3168 20.4567 4.66823 -36.389 20.969 4.99623 -1.00375 1.77403 1.1735 -42.7843 24.7471 5.54522 -8.91268 5.62964 -0.441561 -6.58208 6.72802 5.06497 -13.8829 9.68224 -0.672461 -15.268 10.6417 -0.610385 13.8074 -0.97615 8.79336 -17.7368 12.2751 -1.06102 -8.75316 6.0319 -1.00098 -11.5753 -16.7454 -49.4478 -4.53228 0.274108 0.313017 8.53299 10.6973 -3.07917 -21.8286 0.0874874 5.27562 -51.5653 -74.1107 -31.855 5.46731 -50.6696 -1.79261 7.98148 -37.3524 -1.48164 20.8132 17.2476 -1.64449 39.2536 11.9924 -4.93879 40.0954 12.1952 -5.12847 5.73489 3.01956 -1.23922 51.4242 15.4173 -6.16794 14.4547 4.90053 -0.276161 12.0241 6.76833 -5.49467 20.2298 7.811 -0.242921 21.8126 8.40365 -0.379379 -13.6358 2.82534 -6.86715 21.0316 7.98086 0.327124 10.7771 4.08721 0.53084 14.9862 -7.14842 53.2651 1.89448 -0.271174 -1.98348 -14.8775 25.9548 12.1768 -29.6905 -9.70398 -8.28833 0.557762 0.0371748 4.31562 15.1507 13.6884 -1.01669 1.34818 9.02271 -0.625482 40.167 -33.947 17.1747 0.0307498 24.7822 -1.67613 -12.7926 10.094 -15.5922 0.186431 -1.39293 0.00220692 
-26.5137 -66.0771 85.3834 0 0 -0 10.2292 -64.6772 21.202 -0.0978468 -7.03524 0.332019 -0.156034 -14.071 0.659372 -0.156034 -14.071 0.659373 0.321819 -0.899504 -5.49172 16.9854 5.05405 -1.8572 5.46671 -1.48889 -28.2609 44.5491 -52.2775 27.9472 69.4077 -76.5801 98.8684 -27.1651 -18.382 -25.1593 -3.03463 13.5333 -2.18207 -35.3168 20.4566 4.66826 -36.3891 20.969 4.99629 -1.00372 1.77401 1.17356 -42.7844 24.7471 5.54526 -8.91265 5.62961 -0.441555 -6.58206 6.72801 5.065 -13.8829 9.68225 -0.672416 -15.268 10.6417 -0.610367 13.8074 -0.976153 8.79342 -17.7368 12.2751 -1.06102 -8.75438 6.03277 -1.00106 -11.5753 -16.7454 -49.4478 -4.53227 0.274103 0.31304 8.53296 10.6974 -3.07913 -21.6107 0.0591729 6.15563 -52.6341 -73.6526 -32.8033 5.75103 -50.9466 -1.46292 6.97314 -37.4 -1.69528 20.8132 17.2476 -1.64446 39.2536 11.9924 -4.9388 40.0954 12.1952 -5.12851 5.7349 3.01958 -1.23921 51.4242 15.4173 -6.16793 14.4547 4.90054 -0.276147 12.0241 6.76832 -5.49465 20.2298 7.81099 -0.242903 21.8127 8.40337 -0.380011 -13.6358 2.82534 -6.86716 21.0316 7.98085 0.327147 10.7771 4.08721 0.530848 14.9862 -7.14841 53.2651 1.89451 -0.271168 -1.98352 -14.8775 25.9548 12.1769 -29.8669 -9.8266 -8.38156 0.539312 0.0944259 4.32092 15.0251 13.7186 -0.695716 1.35166 9.04502 -0.627307 40.1958 -33.848 17.1963 0.0180828 24.6895 -1.73511 -12.996 10.1671 -15.2915 0.194838 -1.45578 0.00239917 
-26.5407 -66.066 85.3814 0 0 -0 10.1415 -64.712 21.1286 -0.0857711 -7.02949 0.309391 -0.134495 -14.0593 0.615114 -0.134487 -14.0594 0.615121 0.326637 -0.826337 -5.68365 17.0477 5.02867 -1.5269 5.26972 -1.46885 -28.207 44.8164 -52.1916 28.1772 69.3165 -76.8333 99.1847 -27.1752 -18.1492 -25.4983 -3.03457 13.5334 -2.18217 -35.3168 20.4566 4.66834 -36.3891 20.969 4.99637 -1.00369 1.77402 1.17344 -42.7844 24.747 5.54533 -8.91265 5.62969 -0.441504 -6.58207 6.72801 5.06507 -13.8829 9.68222 -0.672563 -15.268 10.6417 -0.610369 13.8074 -0.976107 8.79328 -17.7368 12.2751 -1.061 -8.75559 6.03361 -1.00116 -11.5753 -16.7454 -49.4479 -4.53229 0.274128 0.31307 8.53296 10.6974 -3.07904 -21.3347 0.0332259 7.07164 -53.794 -72.893 -33.8179 5.93352 -51.3968 -1.45345 6.13168 -37.4042 -1.62622 20.8132 17.2477 -1.64438 39.2536 11.9924 -4.9388 40.0954 12.1951 -5.1285 5.73488 3.01958 -1.23917 51.4242 15.4173 -6.16791 14.4547 4.90059 -0.276137 12.0241 6.76836 -5.49462 20.2298 7.81098 -0.242881 21.8128 8.40305 -0.38066 -13.6358 2.82534 -6.86714 21.0316 7.98085 0.327162 10.7771 4.08719 0.530846 14.9862 -7.14839 53.2651 1.89454 -0.271165 -1.98354 -14.8775 25.9548 12.1769 -29.762 -9.76429 -8.21437 0.520804 -0.00250425 4.3158 15.1557 13.5765 -1.00024 1.35175 9.04554 -0.627374 40.1896 -33.7703 17.0873 0.0182052 24.5662 -1.73683 -13.1 10.1767 -15.3228 0.203253 -1.51857 0.00260947 
